<svg width="21" height="16" viewBox="0 0 21 16" fill="none" xmlns="http://www.w3.org/2000/svg">
<path d="M21 7.875C21 8.10706 20.9078 8.32963 20.7437 8.49372C20.5796 8.65781 20.3571 8.75 20.125 8.75H0.875C0.642936 8.75 0.420376 8.65781 0.256282 8.49372C0.0921874 8.32963 0 8.10706 0 7.875C0 7.64294 0.0921874 7.42038 0.256282 7.25628C0.420376 7.09219 0.642936 7 0.875 7H20.125C20.3571 7 20.5796 7.09219 20.7437 7.25628C20.9078 7.42038 21 7.64294 21 7.875ZM0.875 1.75H20.125C20.3571 1.75 20.5796 1.65781 20.7437 1.49372C20.9078 1.32962 21 1.10706 21 0.875C21 0.642936 20.9078 0.420376 20.7437 0.256282C20.5796 0.0921874 20.3571 0 20.125 0H0.875C0.642936 0 0.420376 0.0921874 0.256282 0.256282C0.0921874 0.420376 0 0.642936 0 0.875C0 1.10706 0.0921874 1.32962 0.256282 1.49372C0.420376 1.65781 0.642936 1.75 0.875 1.75ZM20.125 14H0.875C0.642936 14 0.420376 14.0922 0.256282 14.2563C0.0921874 14.4204 0 14.6429 0 14.875C0 15.1071 0.0921874 15.3296 0.256282 15.4937C0.420376 15.6578 0.642936 15.75 0.875 15.75H20.125C20.3571 15.75 20.5796 15.6578 20.7437 15.4937C20.9078 15.3296 21 15.1071 21 14.875C21 14.6429 20.9078 14.4204 20.7437 14.2563C20.5796 14.0922 20.3571 14 20.125 14Z" fill="#243757"/>
</svg>
